<svg height="140" viewBox="0 0 740 1009" fill="none" xmlns="http://www.w3.org/2000/svg">
<path d="M186.536 910.117C181.436 907.771 175.877 906.598 169.859 906.598C164.351 906.598 160.22 907.771 157.466 910.117C154.712 912.361 153.335 915.268 153.335 918.838C153.335 922.408 154.508 925.162 156.854 927.1C159.2 928.936 163.331 930.721 169.247 932.455L173.837 933.832C179.651 935.566 184.088 938.116 187.148 941.482C190.208 944.848 191.738 948.979 191.738 953.875C191.738 956.731 191.177 959.434 190.055 961.984C188.933 964.432 187.301 966.574 185.159 968.41C183.017 970.246 180.314 971.674 177.05 972.694C173.888 973.714 170.216 974.224 166.034 974.224C161.444 974.224 157.415 973.816 153.947 973C150.479 972.286 147.419 971.317 144.767 970.093L146.909 963.82C149.561 965.146 152.315 966.166 155.171 966.88C158.027 967.492 161.393 967.798 165.269 967.798C171.083 967.798 175.571 966.676 178.733 964.432C181.895 962.188 183.476 958.975 183.476 954.793C183.476 951.529 182.303 948.724 179.957 946.378C177.713 943.93 173.684 941.788 167.87 939.952L162.974 938.422C151.04 934.648 145.073 928.375 145.073 919.603C145.073 916.747 145.634 914.146 146.756 911.8C147.98 909.352 149.612 907.312 151.652 905.68C153.794 903.946 156.293 902.62 159.149 901.702C162.107 900.682 165.371 900.172 168.941 900.172C172.205 900.172 175.571 900.427 179.039 900.937C182.507 901.447 185.669 902.416 188.525 903.844L186.536 910.117ZM246.593 907.21H222.419V954.334C222.419 959.128 223.49 962.392 225.632 964.126C227.774 965.758 230.732 966.574 234.506 966.574C237.464 966.574 240.218 966.319 242.768 965.809C245.318 965.197 247.46 964.585 249.194 963.973L250.418 969.94C248.378 970.756 245.879 971.47 242.921 972.082C239.963 972.694 236.699 973 233.129 973C227.009 973 222.368 971.572 219.206 968.716C216.044 965.758 214.463 961.321 214.463 955.405V907.21H201.458V901.09H214.463V878.14H222.419V901.09H246.593V907.21ZM323.766 936.28C323.766 942.298 322.95 947.704 321.318 952.498C319.686 957.19 317.391 961.168 314.433 964.432C311.577 967.594 308.211 970.042 304.335 971.776C300.459 973.408 296.226 974.224 291.636 974.224C287.148 974.224 282.915 973.459 278.937 971.929C275.061 970.297 271.695 967.951 268.839 964.891C265.983 961.831 263.739 958.057 262.107 953.569C260.475 948.979 259.659 943.726 259.659 937.81C259.659 931.792 260.475 926.437 262.107 921.745C263.841 917.053 266.187 913.126 269.145 909.964C272.103 906.7 275.571 904.252 279.549 902.62C283.527 900.988 287.76 900.172 292.248 900.172C296.736 900.172 300.918 900.937 304.794 902.467C308.67 903.997 311.985 906.292 314.739 909.352C317.595 912.412 319.788 916.186 321.318 920.674C322.95 925.162 323.766 930.364 323.766 936.28ZM315.504 937.045C315.504 931.741 314.841 927.202 313.515 923.428C312.189 919.552 310.404 916.39 308.16 913.942C306.018 911.392 303.519 909.556 300.663 908.434C297.807 907.21 294.849 906.598 291.789 906.598C288.729 906.598 285.771 907.21 282.915 908.434C280.059 909.556 277.509 911.392 275.265 913.942C273.021 916.39 271.236 919.552 269.91 923.428C268.584 927.202 267.921 931.741 267.921 937.045C267.921 942.655 268.584 947.398 269.91 951.274C271.338 955.15 273.174 958.312 275.418 960.76C277.662 963.208 280.212 964.993 283.068 966.115C286.026 967.237 289.035 967.798 292.095 967.798C295.155 967.798 298.062 967.288 300.816 966.268C303.672 965.146 306.171 963.361 308.313 960.913C310.557 958.465 312.291 955.303 313.515 951.427C314.841 947.449 315.504 942.655 315.504 937.045ZM341.503 973V901.09H346.705L348.541 915.472C350.275 910.882 353.233 907.21 357.415 904.456C361.597 901.6 366.289 900.172 371.491 900.172C373.939 900.172 376.081 900.376 377.917 900.784C379.753 901.192 381.181 901.651 382.201 902.161L380.671 909.199C379.447 908.689 378.07 908.23 376.54 907.822C375.01 907.414 373.225 907.21 371.185 907.21C368.227 907.21 365.422 907.72 362.77 908.74C360.22 909.76 357.925 911.341 355.885 913.483C353.947 915.625 352.366 918.328 351.142 921.592C350.02 924.754 349.459 928.528 349.459 932.914V973H341.503ZM391.973 907.363C396.767 904.813 401.153 902.977 405.131 901.855C409.211 900.733 413.546 900.172 418.136 900.172C421.4 900.172 424.46 900.631 427.316 901.549C430.274 902.467 432.824 903.946 434.966 905.986C437.21 908.026 438.944 910.729 440.168 914.095C441.494 917.359 442.157 921.388 442.157 926.182V973H436.649L434.966 963.514H434.66C431.702 967.084 428.234 969.787 424.256 971.623C420.278 973.357 415.841 974.224 410.945 974.224C407.579 974.224 404.468 973.765 401.612 972.847C398.756 971.827 396.257 970.399 394.115 968.563C392.075 966.727 390.443 964.534 389.219 961.984C388.097 959.332 387.536 956.425 387.536 953.263C387.536 949.489 388.301 946.174 389.831 943.318C391.361 940.462 393.503 938.116 396.257 936.28C399.011 934.342 402.275 932.914 406.049 931.996C409.925 931.078 414.209 930.619 418.901 930.619H434.201V925.876C434.201 918.94 432.671 913.993 429.611 911.035C426.551 908.077 422.573 906.598 417.677 906.598C414.719 906.598 411.302 907.057 407.426 907.975C403.55 908.893 399.419 910.576 395.033 913.024L391.973 907.363ZM434.201 936.892L421.502 937.045C416.912 937.147 412.985 937.657 409.721 938.575C406.457 939.391 403.754 940.513 401.612 941.941C399.572 943.267 398.093 944.899 397.175 946.837C396.257 948.673 395.798 950.662 395.798 952.804C395.798 955.456 396.257 957.751 397.175 959.689C398.093 961.525 399.317 963.055 400.847 964.279C402.377 965.503 404.162 966.421 406.202 967.033C408.344 967.543 410.588 967.798 412.934 967.798C414.77 967.798 416.657 967.594 418.595 967.186C420.533 966.676 422.42 965.962 424.256 965.044C426.194 964.024 428.03 962.8 429.764 961.372C431.498 959.842 432.977 958.006 434.201 955.864V936.892ZM460.208 924.958C460.208 920.98 460.871 917.461 462.197 914.401C463.625 911.239 465.614 908.638 468.164 906.598C470.714 904.456 473.723 902.875 477.191 901.855C480.761 900.733 484.637 900.172 488.819 900.172C490.655 900.172 492.236 900.274 493.562 900.478C494.99 900.682 496.367 900.886 497.693 901.09H527.528V907.21H518.654L505.343 906.292C508.505 908.026 511.055 910.576 512.993 913.942C514.931 917.308 515.9 920.929 515.9 924.805C515.9 928.783 515.186 932.353 513.758 935.515C512.432 938.575 510.494 941.176 507.944 943.318C505.496 945.46 502.589 947.092 499.223 948.214C495.857 949.234 492.185 949.744 488.207 949.744C486.779 949.744 485.351 949.693 483.923 949.591C482.597 949.489 481.169 949.285 479.639 948.979C477.191 949.897 475.202 951.325 473.672 953.263C472.142 955.099 471.377 957.037 471.377 959.077C471.377 961.729 472.346 963.667 474.284 964.891C476.324 966.013 478.874 966.574 481.934 966.574H500.6C508.556 966.574 514.574 968.257 518.654 971.623C522.734 974.989 524.774 979.324 524.774 984.628C524.774 988.198 523.958 991.411 522.326 994.267C520.694 997.225 518.348 999.724 515.288 1001.76C512.228 1003.8 508.505 1005.39 504.119 1006.51C499.733 1007.63 494.786 1008.19 489.278 1008.19C479.282 1008.19 471.326 1006.2 465.41 1002.22C459.494 998.347 456.536 992.992 456.536 986.158C456.536 982.384 457.607 979.171 459.749 976.519C461.993 973.969 465.155 971.98 469.235 970.552C467.705 969.736 466.328 968.41 465.104 966.574C463.982 964.636 463.421 962.443 463.421 959.995C463.421 956.629 464.39 953.875 466.328 951.733C468.266 949.489 470.51 947.755 473.06 946.531C471.428 945.817 469.847 944.797 468.317 943.471C466.787 942.145 465.41 940.564 464.186 938.728C462.962 936.892 461.993 934.852 461.279 932.608C460.565 930.262 460.208 927.712 460.208 924.958ZM475.049 973C472.091 974.02 469.643 975.601 467.705 977.743C465.869 979.885 464.951 982.384 464.951 985.24C464.951 990.748 467.195 994.879 471.683 997.633C476.273 1000.39 482.189 1001.76 489.431 1001.76C494.225 1001.76 498.305 1001.25 501.671 1000.23C505.139 999.316 507.944 998.041 510.086 996.409C512.33 994.879 513.962 993.094 514.982 991.054C516.002 989.116 516.512 987.127 516.512 985.087C516.512 982.639 516.002 980.599 514.982 978.967C514.064 977.437 512.687 976.213 510.851 975.295C509.117 974.479 507.026 973.867 504.578 973.459C502.232 973.153 499.631 973 496.775 973H475.049ZM507.638 925.264C507.638 919.246 505.904 914.656 502.436 911.494C498.968 908.23 494.429 906.598 488.819 906.598C485.963 906.598 483.311 907.006 480.863 907.822C478.415 908.536 476.273 909.658 474.437 911.188C472.601 912.616 471.122 914.452 470 916.696C468.98 918.94 468.47 921.592 468.47 924.652C468.47 930.976 470.357 935.668 474.131 938.728C477.905 941.788 482.597 943.318 488.207 943.318C493.817 943.318 498.458 941.839 502.13 938.881C505.802 935.923 507.638 931.384 507.638 925.264ZM595.592 937.045H544.337V939.187C544.337 948.163 546.734 955.201 551.528 960.301C556.424 965.299 563.054 967.798 571.418 967.798C578.048 967.798 584.27 966.676 590.084 964.432L591.92 970.552C589.268 971.674 586.055 972.541 582.281 973.153C578.609 973.867 574.835 974.224 570.959 974.224C566.165 974.224 561.626 973.51 557.342 972.082C553.16 970.654 549.488 968.461 546.326 965.503C543.164 962.443 540.665 958.618 538.829 954.028C536.993 949.336 536.075 943.726 536.075 937.198C536.075 931.588 536.84 926.488 538.37 921.898C539.9 917.308 542.093 913.432 544.949 910.27C547.805 907.006 551.171 904.507 555.047 902.773C558.923 901.039 563.258 900.172 568.052 900.172C572.132 900.172 575.855 900.937 579.221 902.467C582.689 903.895 585.596 905.986 587.942 908.74C590.39 911.494 592.277 914.809 593.603 918.685C594.929 922.561 595.592 926.845 595.592 931.537V937.045ZM587.33 930.619C587.33 927.661 586.973 924.754 586.259 921.898C585.545 918.94 584.372 916.339 582.74 914.095C581.21 911.851 579.17 910.066 576.62 908.74C574.172 907.312 571.163 906.598 567.593 906.598C561.371 906.598 556.169 908.689 551.987 912.871C547.907 917.053 545.459 922.969 544.643 930.619H587.33Z" fill="#777"/>
<path d="M0 370C0 70 173 0 370 0C567 0 740 70 740 370C740 670 567 740 370 740C173 740 0 670 0 370Z" fill="#FAFA00"/>
<path d="M346.787 183H395.467L544.473 557H487.483L446.521 453.111H292.765L252.397 557H196L346.787 183ZM307.606 409.775H430.492L405.559 345.067C398.831 328.049 392.696 311.624 387.156 295.794C381.615 279.963 376.074 263.737 370.533 247.114H369.346C363.805 263.737 358.067 279.765 352.13 295.2C346.194 310.635 339.861 327.257 333.133 345.067L307.606 409.775Z" fill="white"/>
</svg>
